#!OML:ASF I:\golf\golf\golf 2\Subject 1\2002-09-07\Subject1.ASF
:FULLY-SPECIFIED
:DEGREES
422
root -6.59015 17.7957 -2.00323 -169.138 -4.13715 -175.359
lowerback -11.1254 16.7346 13.1595
upperback -15.5057 18.6094 0.741331
thorax -7.21605 6.82923 -4.23535
lowerneck -10.5102 -20.7549 -3.87974
upperneck 8.20766 -28.4583 5.33158
head 5.39785 -13.8564 -0.267846
rclavicle -2.34566e-014 -7.15625e-015
rhumerus 111.072 26.114 -55.2104
rradius 69.8077
rwrist 9.33416
rhand -51.0722 33.6564
rfingers 7.12502
rthumb -23.6178 5.08698
lclavicle -2.34566e-014 -7.15625e-015
lhumerus 75.1307 27.5129 60.0622
lradius 75.5912
lwrist 19.5189
lhand -33.974 11.8372
lfingers 7.12502
lthumb -187.154 581.696
rfemur 18.9852 -7.85151 20.8262
rtibia 13.8051
rfoot 33.8412 -35.026
rtoes 28.2662
lfemur -27.6945 -20.6169 -15.1638
ltibia 31.1023
lfoot 37.8524 -44.2827
ltoes 54.0729
423
root -6.5854 17.7989 -2.01698 -169.122 -4.11027 -175.393
lowerback -11.2391 16.6884 12.9993
upperback -15.5483 18.5288 0.705654
thorax -7.24723 6.79477 -4.19512
lowerneck -10.1748 -20.6577 -3.78619
upperneck 7.87248 -28.3374 5.43434
head 5.2389 -13.8129 -0.177773
rclavicle 6.59965e-014 6.79844e-014
rhumerus 110.729 26.0604 -55.4437
rradius 69.8002
rwrist 8.75012
rhand -51.092 33.9258
rfingers 7.12502
rthumb -23.6369 5.35884
lclavicle 6.59965e-014 6.79844e-014
lhumerus 74.8614 27.4059 59.5036
lradius 75.3634
lwrist 18.9932
lhand -34.0271 12.0415
lfingers 7.12502
lthumb -187.206 581.899
rfemur 18.8344 -7.63406 20.8643
rtibia 14.0739
rfoot 34.0097 -34.6082
rtoes 27.366
lfemur -27.6078 -20.5317 -15.1989
ltibia 30.9837
lfoot 38.2112 -44.2908
ltoes 54.0999
424
root -6.58026 17.8017 -2.03023 -169.028 -4.07073 -175.528
lowerback -11.4437 16.6424 12.7584
upperback -15.5489 18.442 0.635549
thorax -7.19141 6.7755 -4.12915
lowerneck -9.99943 -20.5443 -3.71133
upperneck 7.62473 -28.1838 5.51134
head 5.12971 -13.7462 -0.112855
rclavicle 1.59028e-015 2.62396e-014
rhumerus 110.429 25.9653 -55.6232
rradius 69.7561
rwrist 8.20644
rhand -51.2527 34.2216
rfingers 7.12502
rthumb -23.7909 5.67456
lclavicle 1.59028e-015 2.62396e-014
lhumerus 74.72 27.3564 59.0219
lradius 75.067
lwrist 18.8
lhand -33.839 12.1666
lfingers 7.12502
lthumb -187.024 582.03
rfemur 18.5868 -7.41971 20.8138
rtibia 14.3917
rfoot 33.9292 -34.6427
rtoes 27.2202
lfemur -27.6155 -20.4734 -15.295
ltibia 30.8633
lfoot 38.6587 -44.0816
ltoes 54.2788
425
root -6.57879 17.8044 -2.03913 -168.915 -4.07507 -175.597
lowerback -11.5936 16.5899 12.6504
upperback -15.5568 18.3493 0.552406
thorax -7.13381 6.73933 -4.14732
lowerneck -10.0409 -20.4581 -3.67611
upperneck 7.67302 -28.0797 5.53709
head 5.14698 -13.6924 -0.106682
rclavicle -2.20651e-014 -3.53837e-014
rhumerus 110.165 25.956 -55.8516
rradius 69.6305
rwrist 7.84948
rhand -51.6554 34.233
rfingers 7.12502
rthumb -24.1772 5.73683
lclavicle -2.20651e-014 -3.53837e-014
lhumerus 74.515 27.3801 58.4532
lradius 74.702
lwrist 18.8337
lhand -33.7045 12.1897
lfingers 7.12502
lthumb -186.894 582.057
rfemur 18.3321 -7.49105 20.7051
rtibia 14.642
rfoot 34.3478 -34.2073
rtoes 26.8428
lfemur -27.6691 -20.4198 -15.3118
ltibia 30.7588
lfoot 39.134 -43.8248
ltoes 54.3995
426
root -6.57757 17.808 -2.04567 -168.836 -4.08713 -175.573
lowerback -11.6163 16.5515 12.6678
upperback -15.5735 18.2948 0.481666
thorax -7.11919 6.7081 -4.23157
lowerneck -10.2711 -20.4141 -3.59218
upperneck 7.84289 -28.012 5.40446
head 5.2029 -13.6533 -0.174722
rclavicle 2.16675e-014 1.27222e-014
rhumerus 109.931 25.8922 -56.0504
rradius 69.5211
rwrist 7.33539
rhand -51.6737 34.0275
rfingers 7.12502
rthumb -24.1947 5.53364
lclavicle 2.16675e-014 1.27222e-014
lhumerus 74.376 27.3075 58.0198
lradius 74.3059
lwrist 18.7934
lhand -33.5721 12.0873
lfingers 7.12502
lthumb -186.766 581.959
rfemur 18.1385 -7.75602 20.611
rtibia 14.825
rfoot 34.7662 -33.5074
rtoes 26.1518
lfemur -27.7025 -20.3171 -15.2513
ltibia 30.667
lfoot 39.3979 -43.8294
ltoes 54.3512
427
root -6.57216 17.8138 -2.05509 -168.807 -4.05375 -175.493
lowerback -11.6219 16.5087 12.6983
upperback -15.5047 18.2481 0.485015
thorax -7.03538 6.69787 -4.24081
lowerneck -10.6913 -20.3869 -3.63313
upperneck 8.03622 -27.9461 5.33422
head 5.32092 -13.6038 -0.239419
rclavicle -4.13472e-014 -7.71285e-014
rhumerus 109.776 25.734 -56.1468
rradius 69.4437
rwrist 6.59618
rhand -51.2014 34.1421
rfingers 7.12502
rthumb -23.7418 5.58864
lclavicle -4.13472e-014 -7.71285e-014
lhumerus 74.3889 27.2115 57.7733
lradius 73.8909
lwrist 18.7097
lhand -33.4335 11.9047
lfingers 7.12502
lthumb -186.633 581.781
rfemur 18.0437 -7.76389 20.695
rtibia 14.9108
rfoot 34.7655 -33.3724
rtoes 26.0655
lfemur -27.6818 -20.1587 -15.1502
ltibia 30.6025
lfoot 39.3594 -44.098
ltoes 54.156
428
root -6.56551 17.8192 -2.06561 -168.792 -4.00421 -175.349
lowerback -11.6567 16.4906 12.7822
upperback -15.4434 18.2184 0.494835
thorax -6.93145 6.68989 -4.25663
lowerneck -10.9031 -20.3939 -3.71617
upperneck 8.15892 -27.9468 5.36041
head 5.40711 -13.5923 -0.257464
rclavicle 4.03533e-014 5.1684e-014
rhumerus 109.555 25.5796 -56.2418
rradius 69.3042
rwrist 6.14641
rhand -51.0086 34.3358
rfingers 7.12502
rthumb -23.5569 5.75849
lclavicle 4.03533e-014 5.1684e-014
lhumerus 74.273 27.1134 57.418
lradius 73.5179
lwrist 18.8272
lhand -33.2853 11.85
lfingers 7.12502
lthumb -186.49 581.731
rfemur 18.0249 -7.61274 20.9185
rtibia 14.8592
rfoot 34.7029 -33.5728
rtoes 26.2913
lfemur -27.645 -19.9607 -14.9841
ltibia 30.5523
lfoot 39.5254 -44.1795
ltoes 54.0912
429
root -6.55944 17.8241 -2.07388 -168.742 -3.98024 -175.168
lowerback -11.672 16.5072 12.9035
upperback -15.4713 18.2227 0.460167
thorax -6.91175 6.67607 -4.34095
lowerneck -10.8312 -20.4169 -3.62516
upperneck 8.1012 -27.9743 5.28582
head 5.35569 -13.6133 -0.274131
rclavicle 3.08116e-014 2.3059e-014
rhumerus 109.242 25.4309 -56.378
rradius 69.053
rwrist 5.80774
rhand -51.0082 33.8434
rfingers 7.12502
rthumb -23.5565 5.26606
lclavicle 3.08116e-014 2.3059e-014
lhumerus 74.0317 26.9117 57.0196
lradius 73.1405
lwrist 19.2481
lhand -32.8868 11.6288
lfingers 7.12502
lthumb -186.105 581.521
rfemur 17.9944 -7.47262 21.1903
rtibia 14.7615
rfoot 34.4313 -34.0845
rtoes 27.0038
lfemur -27.6418 -19.8205 -14.7313
ltibia 30.4647
lfoot 39.9127 -43.9656
ltoes 54.196
